<svg width="288" height="375" viewBox="0 0 288 375" fill="none" xmlns="http://www.w3.org/2000/svg">
<path d="M21.7279 374.356C18.6556 373.134 16.2911 372.592 13.8012 370.455C12.3988 364.068 14.7861 361.263 17.641 355.947C18.9259 353.553 19.6505 351.571 20.433 348.995C19.9304 348.515 18.5778 347.219 18.0453 346.906C16.1481 345.787 15.0631 345.763 13.4008 344.182C13.1033 342.817 12.5231 340.946 12.1381 339.561C14.5656 335.755 14.9057 335.912 19.0356 334.425C18.333 336.749 16.7657 338.936 17.1557 340.736C17.5707 341.378 17.8559 341.729 18.6059 341.933C22.4233 342.977 22.661 342.636 25.9584 341.109C27.9559 336.076 28.3433 333.828 27.0434 328.53C26.5234 326.404 26.4654 322.907 24.7904 321.348C20.7534 320.328 22.0155 325.235 15.5082 321.9C18.8432 319.127 20.4781 318.439 20.4906 313.772C20.5056 307.282 17.2628 303.112 14.6703 297.53C13.3479 294.683 12.4409 291.183 11.3959 288.207C10.8785 286.558 10.3306 282.018 10.0356 280.038C9.62058 277.261 8.94046 274.993 8.45549 272.367C9.61799 269.208 8.44322 265.557 9.59318 262.282C11.0907 258.005 12.4683 253.695 13.8783 249.389C14.4884 247.524 16.5528 245.804 16.6528 243.758C16.7048 242.644 15.0228 241.352 14.2104 240.493C14.0329 235.945 14.453 235.883 18.6078 234.103C19.3903 232.483 20.0554 231.136 21.0678 229.74C22.7553 227.407 25.8484 226.006 26.1684 223.147C26.2183 222.692 26.1906 222.797 26.558 222.519L26.9135 222.591C31.9859 223.549 37.5011 217.84 40.891 214.735C42.5962 213.171 49.0152 208.175 49.1235 206.068C46.4836 204.268 38.9965 209.96 37.351 209.701C35.2611 209.371 24.9889 208.891 23.9906 208.099C22.8182 206.268 24.9681 203.897 24.5356 203.036C20.803 195.615 14.0328 208.771 12.1078 211.639C13.8553 216.484 13.6487 215.922 17.3012 219.261C17.3262 220.263 17.4453 219.943 17.0053 220.761C15.5877 221.471 12.9404 219.791 11.9555 218.734C5.70807 212.026 11.0662 206.744 15.7387 202.425C15.1587 199.146 14.1953 197.372 12.8803 194.357C12.5203 193.538 13.6381 193.381 13.1782 192.582C12.1256 190.757 10.2628 189.053 9.60784 186.995C9.70287 185.663 10.0103 183.428 10.0278 181.595C8.8305 180.638 8.10064 179.838 7.04827 178.728C6.90078 177.005 6.6738 176.004 7.1762 174.332C5.32369 169.447 5.19103 167.027 4.57854 161.782C4.51673 161.244 5.67304 160.197 6.09808 159.752C6.33059 154.86 7.20791 151.582 8.75042 146.919C11.103 139.81 18.8653 136.02 13.8432 128.015C11.7083 127.103 8.99331 127.005 7.42327 124.935C7.14328 123.077 8.66848 122.809 10.1235 122.352C16.9683 123.477 17.4059 125.075 22.0434 130.328C25.5109 127.32 24.5708 123.797 24.4233 119.527C22.8259 119.237 20.1158 119.555 20.018 117.6C20.6155 116.353 21.9404 115.199 22.9604 114.187L13.351 114.095C12.8085 112.323 12.2011 111.609 11.3061 110.067C9.98615 107.789 10.5487 104.692 13.1362 103.627C15.0835 102.823 15.9888 103.362 17.8012 104.002C20.7686 107.767 23.1957 108.835 25.8881 112.427C28.958 116.527 26.7061 125.042 28.2309 128.424C29.8283 129.572 36.7848 128.004 38.8178 127.782C40.4827 127.617 42.1582 127.602 43.8256 127.74C50.2381 128.252 50.5712 129.027 54.5737 133.707C55.1691 134.4 57.2136 135.645 58.3334 136.945C58.426 139.632 60.2212 139.435 60.8862 141.155C63.1711 147.075 64.8653 155.282 60.1078 160.469C57.5028 163.309 56.3635 165.637 57.3285 169.27C57.8633 171.287 56.2879 173.547 55.3305 175.124C53.3008 175.867 53.2256 176.148 51.3735 174.872C49.7735 174.837 47.0858 174.692 45.6733 175.134C40.7133 176.69 41.6158 178.16 36.061 177.916C32.3237 175.312 31.8029 173.01 31.9604 168.68C28.143 165.968 24.7585 163.945 27.7455 158.93C29.573 158.365 31.0579 157.632 32.6303 156.572C34.3427 153.119 34.3704 152.162 34.4604 148.289C39.6953 147.129 40.5157 147.95 45.3705 149.785C46.0855 150.147 48.8036 149.687 49.3061 149.907C51.5185 150.882 54.9983 156.894 57.6733 153.627C58.6457 152.437 58.008 150.015 57.8754 148.56C57.0279 139.272 53.1858 136.94 46.2983 132.137C37.8458 132.032 32.2908 131.907 24.6108 135.832C24.8407 137.095 24.9434 138.067 25.0659 139.337C26.4407 140.43 27.7882 141.619 29.393 142.312C29.528 144.412 29.4931 146.402 29.683 148.549C28.743 149.442 27.7881 150.32 26.8256 151.19C25.8606 150.545 25.2203 149.989 24.3403 149.249C27.3427 142.104 19.4956 141.199 15.1205 146.009C10.4931 151.094 10.2936 157.867 10.0336 164.312C9.69113 172.844 13.888 180.075 19.7504 185.9C30.0529 195.956 41.0332 197.018 54.7807 196.615C55.7456 194.557 56.578 193.612 54.9985 191.71C54.386 190.973 54.1529 189.514 53.8979 188.529C55.2079 187.12 56.2086 185.652 58.0336 185.269C60.2533 186.153 59.5884 192.137 62.9233 192.024C70.0533 191.782 73.6612 183.556 78.0287 179.702C78.6862 175.588 79.0381 173.952 81.5805 170.469C84.1129 167.002 85.1584 163.099 85.4809 158.844C84.7935 158.159 84.3554 157.587 83.4555 157.262L83.1254 157.457C80.9757 158.71 80.298 158.604 77.8432 157.924C73.6008 156.747 69.856 154.752 67.811 150.677C67.061 149.18 66.0359 146.882 68.1254 146.007C73.1804 146.685 68.7662 155.525 81.3412 152.905L81.6782 152.832C86.9181 147.95 85.9531 138.582 83.8657 132.57C82.1282 127.567 79.8331 125.245 77.5532 130.83C76.8982 132.437 70.5611 134.434 68.6684 135.232C66.1209 132.417 63.4906 133.452 61.4282 130.504C60.6709 129.419 61.2535 126.315 62.5834 125.637C65.8033 126.005 69.0432 135.797 76.0678 127.555C75.0578 121.673 75.738 117.862 70.558 113.722C69.2379 112.137 64.9629 110.184 63.7905 109.072C56.9434 102.58 57.0782 112.684 53.0659 112.142C49.0409 111.597 52.2103 105.315 50.0453 102.31C46.5428 97.4525 41.0254 95.4492 35.4379 93.7367C28.7233 92.5816 26.8309 87.9944 21.4487 86.1694C17.1388 84.7094 12.6062 90.5821 9.82367 92.9047C9.16617 93.4522 7.38308 94.2995 6.34808 94.102C5.50076 93.567 5.30843 92.8417 4.87347 91.9018C6.84329 87.1095 6.30832 84.9566 7.48578 80.0268C6.47084 78.1367 5.68315 74.5867 4.8432 72.4643C3.13825 68.1569 1.12359 64.522 0.493592 59.8246C0.1886 57.5421 0.343385 55.0994 0.168397 53.0219C-0.649027 45.2371 1.57339 38.9798 5.44574 32.31C7.91565 28.0551 9.75823 24.1851 14.1704 21.5326C16.4329 20.1701 18.5161 17.9471 21.2661 17.4496C22.9535 17.1447 24.6085 17.047 26.311 16.9145C26.4834 16.899 26.6513 16.3173 27.4135 16.2123C28.0759 16.6797 28.3837 16.947 29.2036 16.9545C39.2084 17.042 45.1482 19.1051 48.9282 29.1225C47.6908 31.8625 47.4328 36.1827 44.7504 38.3051C41.6455 40.7273 37.793 41.1944 33.9907 40.7094C31.9882 40.4519 29.1906 39.5141 29.8256 36.9467C30.3909 34.6598 34.3058 37.1794 36.4057 35.3295C38.7632 33.2545 38.8512 31.1571 39.4487 28.3246C33.4612 29.1646 32.7982 27.8696 28.4907 24.1371C20.4433 23.5621 17.096 25.1701 13.6635 32.6625C14.1434 33.7523 14.7284 35.1843 15.5131 36.0492C19.3381 40.2742 23.5657 38.8521 20.0707 45.8471C17.6383 45.0171 16.6082 44.2868 14.4457 42.9018C13.9033 42.9043 13.3607 42.9223 12.8207 42.9623C4.86599 43.5798 7.40605 48.4719 8.18109 54.2992C8.30608 55.2541 7.46803 57.2294 7.75531 58.6694C9.11032 65.4894 11.6986 72.635 18.8461 75.1225C20.6359 75.7423 21.6261 75.5591 23.226 74.6967C24.6285 76.2417 25.9459 77.7469 27.7133 78.8569C30.2656 79.2018 34.3703 79.3622 36.5854 78.0199C38.2878 76.875 40.9829 74.7799 41.3657 72.685C42.4681 66.6576 38.601 64.0444 33.4086 62.8969C31.2911 64.1669 31.1153 62.6567 28.7553 62.8217C27.1652 62.9322 24.1403 65.9698 22.7729 65.7748C21.983 64.6174 22.7109 62.3623 22.811 60.9848C23.1135 56.8798 23.0486 56.0126 26.8461 54.0776C29.9661 47.8802 33.2255 55.3347 37.3354 57.0024L39.2084 57.7826C41.2082 60.4922 42.1685 61.477 45.1381 63.0444L45.5356 62.9321C50.0055 61.7221 53.6656 58.6974 58.4379 58.2973C63.5004 57.8748 66.1761 59.5076 68.3461 63.9701C67.9637 65.28 67.5484 66.3974 66.601 67.3822C65.251 67.8247 64.7885 66.6772 64.5385 65.5297L64.0258 63.185C59.4358 61.695 56.3632 61.957 52.0307 64.3071C50.5009 65.137 49.6559 65.7892 47.9487 66.1967L47.6909 66.2572C44.0259 72.8322 44.198 77.7445 36.518 81.0395C34.9655 81.7069 31.8164 82.7473 30.7387 83.7172C29.4212 86.7397 37.8309 88.037 39.6684 88.4545C44.5634 89.5695 49.2586 89.1451 53.5161 86.3451C56.9509 84.0852 53.9636 77.6454 56.6479 75.6625C57.8403 75.4575 65.1001 78.4897 66.4155 79.1899C66.023 80.3771 65.656 81.3322 65.0512 82.4369C63.1187 85.9569 62.2233 86.9926 65.0883 90.0551C68.9833 89.1201 72.8232 89.0596 76.7807 88.5121C80.5706 87.7147 88.0828 86.0923 91.353 83.9574C95.4954 81.255 99.868 79.0769 104.085 76.727C110.155 73.3445 117.633 66.8398 120.208 60.3774C120.673 59.2049 120.821 57.3771 120.848 56.1196C121.333 49.7771 114.126 50.0392 112.789 47.3617L113.061 46.7973C113.851 46.3748 114.168 46.31 115.043 46.06C116.763 46.7925 120.128 47.8219 121.981 48.4418C122.249 48.209 123.308 47.2796 123.38 47.0795C124.1 45.117 123.451 40.167 123.098 38.3071C119.291 33.9773 113.606 33.402 107.989 33.8119C106.736 33.9044 103.584 35.2892 102.681 34.9721C101.789 33.2672 101.828 30.0201 102.103 28.1401C102.295 26.8253 100.946 25.6051 102.023 24.7826C103.49 24.8676 104.623 26.9542 105.523 27.9819C106.923 29.5792 106.056 29.7195 108.068 29.9994C111.405 30.4644 114.821 30.9296 118.106 31.6196C118.388 30.3047 118.383 29.1923 118.428 27.8549C118.041 27.5874 116.753 26.5269 116.418 26.2094C113.601 23.517 111.168 23.2146 108.151 21.7397C102.306 18.8847 98.5159 17.1623 91.7485 17.4047C91.0385 17.4297 87.6756 18.3543 86.7006 18.5668C81.5207 19.7368 75.2378 20.4273 71.9428 25.1098C70.613 26.9973 69.9529 29.7922 68.6655 31.3246C68.0805 35.7546 67.581 36.8626 69.686 40.9301C72.9384 40.8676 75.0035 40.0292 77.0209 40.0092C81.0533 39.9692 82.501 40.8222 87.0434 40.1547C87.6134 39.3797 88.1904 38.6068 88.7729 37.8393C91.0479 34.8668 94.1035 34.5999 97.101 37.1674C99.0508 38.8398 99.4136 40.5447 99.4936 43.0121C104.738 45.4045 106.608 44.6299 109.268 50.4623C107.271 54.6869 105.526 54.9068 101.051 54.9819C101.329 57.3742 101.443 58.537 101.351 60.9418C100.324 62.8068 99.686 63.3649 98.101 64.6449C91.4685 65.3725 91.3933 63.1269 85.5659 61.9369C81.5809 61.6919 78.0235 63.8293 74.6635 60.5668C71.7036 57.6969 76.0785 54.6369 73.5287 52.2094C70.4337 49.2619 67.6303 46.5344 64.7553 43.3344C64.2303 40.5598 62.6112 39.0422 62.2211 36.6225C61.3511 31.1976 65.4181 27.3447 66.6782 21.9223C65.3757 19.8023 58.9811 16.1674 62.2182 13.5024C62.9457 13.0424 64.4285 13.1621 65.1235 13.3696C71.4858 15.277 76.0607 15.8045 82.4155 13.5971C83.4405 13.2421 85.6009 13.1799 86.8159 12.9574C91.1833 12.16 95.2611 11.6949 99.6186 12.9574C107.881 14.85 116.228 18.7372 122.071 25.0121C123.176 26.1246 124.791 30.9948 126.454 31.0473C129.719 31.1519 131.907 24.522 132.349 22.2221C131.862 20.8271 131.4 19.7995 130.786 18.4545C126.363 16.7272 124.989 19.0844 124.216 13.3598C127.818 13.3848 129.303 13.6995 132.62 14.9594C133.418 15.9844 134.133 17.3394 134.789 18.4819C138.302 16.5469 138.847 14.3295 141.506 11.1996C144.468 12.1121 149.831 12.8947 152.248 14.8471C152.769 15.2671 152.808 16.235 152.816 16.8725C151.945 18.357 150.348 17.7651 148.888 17.4076C145.593 16.5977 144.561 16.4721 141.349 17.6196C140.274 21.2669 141.096 21.5576 144.413 23.1C146.766 26.58 146.733 27.0197 150.936 26.8647C153.238 25.6593 159.395 19.4518 162.057 17.4643C164.888 15.3493 167.689 13.5543 170.587 11.5668C176.493 8.18182 187.911 6.1271 194.8 4.7221C198.51 4.04962 202.664 5.01718 206.27 4.98968C217.73 4.90228 228.25 8.49705 239.531 9.80707C242.923 10.1995 250.252 5.70227 251.648 8.54926C251.393 10.2818 249.122 11.305 247.714 11.935C247.804 13.3972 247.757 14.3821 247.685 15.8393C253.746 14.6693 253.278 13.137 258.192 10.7397C259.292 11.2847 259.98 11.5374 260.39 12.6674C259.822 15.3572 255.689 15.1773 255.347 17.6323C256.052 19.0098 258.344 19.3373 260.18 20.2573C262.343 19.4971 267.843 16.6644 269.418 16.7719C275.823 17.2094 281.21 17.1292 283.272 9.79438C281.63 4.72716 281.37 6.19231 277.79 6.92231C276.493 7.18695 275.095 5.54001 274.157 4.57758C275.841 1.35257 277.659 -1.01251 281.856 0.435001C284.914 1.49003 285.942 4.11714 287.205 6.82953C286.654 10.4545 287.146 13.545 283.57 16.145C275.732 21.8425 264.352 24.1251 254.883 22.1801C251.935 21.575 249.284 18.5224 246.789 21.1772C245.057 23.0197 245.576 24.1776 246.84 26.0776C250.165 31.2524 256.923 30.2744 261.562 33.1469C262.155 33.5144 262.401 34.5195 262.457 35.1645C261.16 38.207 252.909 33.7475 250.255 33.2924C249.245 35.0248 249.137 35.8401 248.932 37.81C248.308 43.8299 245.814 50.6577 245.677 56.6401C245.427 56.8575 245.174 57.0727 244.917 57.2827C244.193 57.8674 243.924 58.1121 243.138 58.0346C240.656 55.2475 236.912 57.402 234.081 58.6869C231.182 62.9468 230.962 60.9924 226.784 62.4047C219.032 65.0247 212.044 65.0745 204.858 60.7045C202.095 59.022 200.055 57.2342 196.52 57.6118C193.127 57.9743 192.868 59.7547 190.988 62.0121C187.657 63.3347 188.962 58.1193 188.238 56.7993C186.066 55.3968 182.224 58.1894 180.223 56.3901C179.967 54.4677 183.655 51.0098 185.138 49.9321L186.259 52.5522C187.709 52.5622 190.221 52.7168 191.475 52.1244C191.887 50.3671 189.654 48.4525 189.338 46.9301C187.14 36.3126 191.131 25.5249 202.612 23.0248C204.542 22.6048 213.16 24.1599 214.205 25.5024C218.72 31.3048 221.877 36.272 229.064 38.977C229.765 38.877 230.07 38.7824 230.772 38.9399C231.455 39.6448 231.236 39.2425 231.469 40.185C231.251 41.0448 230.731 42.0541 229.713 42.1118C226.614 42.2818 223.621 42.3445 220.534 42.727C219.564 44.697 218.706 49.1818 216.052 48.9868C215.414 48.6194 215.056 48.2673 214.628 47.6625C214.566 47.5725 214.506 47.482 214.444 47.392C213.965 46.6971 214.024 46.0546 214.039 45.2397C214.084 42.7798 204.23 42.2372 202.771 40.3725C202.428 39.935 202.472 39.8095 202.527 39.2895C203.638 38.0596 206.651 38.075 208.614 37.5375C212.028 34.6775 209.238 31.0446 208.065 27.8071C205.927 27.987 203.479 27.5668 201.228 27.4418C198.438 28.7868 196.953 30.6844 195.474 33.3969C194.117 35.9544 193.367 42.5094 194.45 45.017C199.91 57.657 214.742 60.1568 226.856 56.9643C228.426 56.5516 228.903 54.8171 229.406 53.5522C232.191 52.4097 235.849 51.1346 237.879 48.9272C243.383 42.9472 247.065 34.4726 240.427 27.9926C238.658 29.7175 238.058 31.1997 235.656 32.0121C233.34 31.6645 235.026 24.5945 233.917 23.9369C229.32 21.2195 226.926 18.1042 224.018 13.6342C222.075 10.9518 216.61 10.9445 213.776 10.5795C202.274 9.09709 193.434 9.14985 182.408 13.1147C175.837 15.4772 175.483 13.4494 169.066 19.0444C171.896 22.2193 173.912 20.9372 177.383 22.8871C178.776 23.6696 180.12 25.3375 179.012 26.9125C177.14 27.04 174.333 24.8293 170.583 24.8842C164.905 24.9692 162.949 25.48 157.934 28.35C155.537 29.8175 152.623 31.0397 150.514 32.9272C146.479 36.5396 143.692 41.727 139.992 45.767C138.469 47.4295 137.315 50.0198 135.686 51.7123C133.864 53.6172 131.968 55.2894 129.997 57.0717C128.636 58.3017 126.323 61.0395 128.434 62.727C131.059 64.6044 133.431 62.4245 135.675 61.3744C140.317 59.202 145.075 57.57 149.686 55.3276C150.395 54.9826 153.371 54.3898 154.236 54.2348C157.961 53.5773 160.339 51.8842 163.288 49.6342C168.013 46.7167 167.411 45.4219 170.036 41.2719C170.944 39.837 174.053 37.63 175.482 35.7026C177.481 36.5526 179.565 37.7123 181.499 38.7348C182.169 40.8122 182.201 42.275 183.413 43.935L181.565 46.3217C173.076 47.1692 173.421 45.3372 165.596 51.5971C164.673 52.3345 162.429 53.2746 161.603 54.0795C161.42 54.962 161.437 54.9147 161.771 55.767C162.972 57.0395 165.605 56.8374 167.331 57.2299C168.35 57.4624 170.532 57.8599 171.395 58.4672C174.067 60.3572 177.371 63.6499 179.031 66.4799C180.214 68.4996 180.753 69.9096 182.122 71.8569C182.485 78.5693 179.433 82.1947 174.057 86.1772C171.179 88.3071 167.368 88.3371 164.014 87.5746C160.593 86.7971 156.608 84.8319 157.159 80.5844C157.392 78.917 161.371 77.1043 162.868 77.6518C164.011 78.072 163.371 80.4127 163.933 81.2826C164.591 82.0998 167.513 82.3544 168.75 82.7143C171.967 81.0568 174.709 78.6099 176.72 75.6C176.206 74.485 175.719 72.9294 174.487 72.4594C172.676 71.7673 171.381 74.3696 169.563 73.5121C168.371 72.9596 168.193 71.6096 168.194 70.4272C168.197 63.6798 167.458 62.3372 160.941 65.1821C159.151 64.1571 157.033 63.157 155.118 62.392C150.711 60.6371 150.699 62.6651 149.598 66.1625C146.978 65.2825 142.15 63.8643 139.725 65.1117C136.698 66.6666 133.75 66.7668 130.724 67.8617C130.152 68.5392 129.965 70.0874 130.963 70.3774C134.819 71.2899 137.114 71.5398 140.518 73.5473C146.231 76.9148 145.166 81.5176 144.894 87.6625C148.033 90.2598 148.899 89.7623 152.297 91.4848C152.633 91.6949 153.129 92.2251 153.095 92.645C152.734 97.107 146.523 93.6151 144.61 92.3901C143.166 91.4651 141.702 90.9642 140.491 89.9467C139.206 90.2717 136.637 91.3399 135.715 91.2524C133.825 89.315 131.306 89.6196 129.647 87.3276C128.675 85.9851 128.374 82.7221 129.956 81.7846C131.261 82.0924 133.357 83.7901 134.459 84.6625L138.732 84.6518C139.366 82.8343 140.027 81.0244 140.715 79.227C139.518 76.8947 138.162 75.6625 135.654 74.8276C132.247 73.6951 128.863 71.8568 125.371 71.1293C124.693 70.9896 122.181 71.6571 121.316 71.7846C120.986 71.6196 120.328 71.2671 119.946 71.3871C117.251 72.2272 114.193 76.4397 112.111 77.7797C102.293 84.1021 91.5586 90.527 80.2787 93.7446C79.0563 94.0945 72.5166 94.1798 70.2387 94.5922C67.0808 95.1643 61.8853 96.0212 58.9018 96.1147L57.603 97.0824C57.0457 98.1198 57.3536 99.1626 57.4936 100.395C60.9386 102.09 66.6756 103.902 69.4555 106.36C73.1105 109.587 78.0387 111.164 82.8237 111.197C85.8258 108.055 86.451 106.3 90.7455 104.712C91.018 107.805 90.7158 109.237 90.2534 112.292C89.3184 113.09 88.4482 113.699 87.4233 114.299C86.3233 114.944 81.713 116.607 81.3705 117.825C80.4906 120.97 85.6231 123.952 86.9057 126.682C90.3432 133.985 92.3436 140.325 92.3061 148.432C92.3561 150.694 92.5405 153.089 92.183 155.334C91.6055 158.857 90.6233 162.37 89.5883 165.775C88.7608 168.5 86.8383 170.907 87.2055 173.884C87.3305 174.887 87.8805 175.861 88.3305 176.743C88.0918 177.36 86.5036 180.822 86.4858 180.865C86.4258 182.697 87.6161 186.549 87.0961 188.367C86.4311 190.696 84.9829 193.384 84.018 195.61C82.5555 198.975 80.8335 202.872 79.976 206.41C78.891 210.877 78.2513 212.543 80.2787 216.69C80.7186 217.593 81.0658 219.118 81.7406 220.238C83.1207 222.527 86.2786 222.155 88.601 222.794C89.4358 223.024 89.9956 223.032 90.4955 223.792L90.3383 224.404C89.1658 225.559 88.4058 225.548 86.7758 226.183L84.7084 225.901C81.1209 225.391 77.4355 223.507 75.2455 220.543C72.6755 217.063 73.9535 211.947 74.561 207.962C71.0135 204.975 68.2583 199.094 64.1108 204.212C61.4985 207.437 60.0511 208.888 60.1811 213.283C61.4535 214.947 63.2882 216.476 64.8031 218.112C64.5007 219.186 57.5534 219.377 56.558 220.394C53.2631 223.76 58.7182 229.315 51.8735 229.753C51.8384 235.944 51.351 239.162 56.853 243.351C61.1929 243.991 61.126 243.937 63.9184 240.55C65.2208 240.154 66.6406 239.991 67.9955 239.785C68.528 239.23 69.1003 238.396 69.5678 237.763C68.5506 236.105 68.5757 234.738 67.8559 233.364C66.7959 231.335 61.7207 233.009 60.5082 230.469C60.7882 226.954 66.8254 227.973 69.4955 227.904C78.358 232.695 76.4159 244.427 67.7836 248.297C61.8162 250.973 53.9138 249.149 51.6186 242.465C51.0161 240.711 48.7729 239.747 48.2905 237.902C48.3755 232.419 49.2536 227.231 49.2612 221.649C50.0386 220.625 50.9558 219.698 51.7358 218.652C53.1133 216.808 54.0461 214.776 55.1811 212.773C55.0111 211.711 54.5458 210.016 54.2758 208.929C52.7859 208.684 50.9658 208.522 49.9233 209.82C46.0258 214.67 40.7086 218.587 36.8686 223.344C34.1336 226.733 31.7029 230.195 29.1479 233.669C29.1479 233.669 29.2677 234.656 29.2778 234.754C28.6851 235.647 26.2914 236.443 25.2387 236.847C25.1887 238.909 24.471 242.05 24.476 243.487C24.6835 247.712 24.5406 253.33 26.0356 257.292C28.0405 262.61 29.9758 267.791 36.6733 265.505C46.1882 262.258 39.6657 254.633 40.6557 252.34C43.273 251.222 43.9134 254.043 44.6283 255.935C46.0083 259.59 43.223 263.838 41.3705 267.091C38.753 268.328 35.973 269.072 33.518 270.616C30.9236 272.25 33.6403 276.042 31.5854 277.449C30.5281 277.524 29.7953 276.92 28.8354 276.356C29.1104 274.495 29.3261 272.573 29.5961 270.692C28.0236 266.301 24.2306 261.2 22.3256 256.818C21.4781 254.865 21.6678 250.789 20.6928 249.092L20.2406 249.062C16.521 251.066 18.651 255.522 17.7885 258.118C15.5585 264.81 13.1359 272.042 17.4633 278.537C18.7707 280.502 20.2279 282.998 20.8305 285.279C21.108 286.369 20.9408 286.232 20.3559 287.178C20.4983 287.499 20.7108 287.846 20.9906 288.032C24.0106 290.031 23.616 294.918 23.726 298.413C23.8886 303.479 25.7754 306.736 28.3578 311.029C28.9403 311.995 29.7735 313.62 30.601 314.384C30.7784 314.337 30.9558 314.291 31.1332 314.247C32.3507 313.958 33.2233 315.505 34.9408 315.783C38.3608 316.336 42.0484 317.434 45.4809 317.76C47.9559 316.166 52.4158 316.683 56.2758 315.478C56.5058 313.73 56.4058 311.876 58.2582 310.862C60.0306 309.89 62.378 310.649 64.2055 311.144C68.2604 307.022 69.5006 305.469 69.5531 299.513C69.5931 294.893 70.893 291.223 64.3305 293.497C63.378 296.006 62.2707 297.58 59.6332 298.228C55.3758 299.322 52.0008 304.013 47.3959 303.815C44.5909 303.186 41.9331 299.185 40.2406 297.188C38.4581 295.087 34.7256 292.701 35.3481 289.951C36.2055 286.151 41.4028 284.521 44.1479 282.512C44.3204 278.679 45.3659 276.469 48.6879 274.544C57.0228 275.633 54.2534 279.959 60.5531 283.562C61.3681 284.028 63.9133 284.522 64.9633 284.814C68.0082 285.655 70.5778 287.709 72.0678 290.496C77.2902 300.084 71.5804 305.193 69.3578 312.755C69.7153 315.271 74.9303 316.218 74.0834 318.765C72.0059 320.088 66.5979 317.943 64.7729 318.372C57.348 320.173 49.8483 321.178 42.186 321.113C40.431 321.098 29.7888 317.869 29.6762 320.721C29.4737 325.882 32.1528 332.745 33.0053 338.07C33.2182 339.395 36.2776 341.054 35.6205 342.924L35.061 343.171C33.8185 343.11 32.8456 342.613 31.6781 342.145C28.0582 342.974 21.8512 355.018 19.9984 358.402C17.166 363.57 12.8234 369.327 21.7934 371.289C23.6233 369.85 23.8962 369.189 24.9086 367.163C24.0786 365.94 22.9559 363.064 22.3334 361.598C29.1631 359.523 32.8056 363.515 30.7484 370.624C29.8835 373.615 24.8263 373.41 21.9887 374.274L21.7279 374.356ZM132.692 47.7914C133.412 46.6215 134.298 45.0689 134.852 44.2914C138.113 39.7114 145.03 35.1141 141.574 28.8891C140.873 27.6266 143.224 26.2561 139.182 23.5961C135.652 23.0012 135.179 24.0517 133.638 26.9916C132.663 28.854 131.625 30.2865 130.373 31.9614C129.937 36.0314 129.226 41.4191 129.437 45.4291C130.547 46.654 131.053 47.4015 132.692 47.7914ZM91.2573 56.8715C93.3621 55.9691 95.3423 55.2041 96.3198 52.9467C97.6347 49.9243 95.0298 46.9239 92.6899 45.3989C91.3724 45.4189 90.042 45.3942 88.7446 45.5942C86.8047 46.3116 85.3647 47.0316 83.6723 48.269C83.8323 50.5264 83.8391 54.3643 85.644 55.8168C87.439 57.2568 89.1348 56.739 91.2573 56.8715ZM41.1869 169.164C45.5494 167.392 49.9396 166.479 47.8871 160.192C47.357 158.564 44.4019 157.754 42.852 157.169C34.6975 158.53 36.3948 168.744 41.1869 169.164ZM49.0541 296.357C50.5391 296.086 52.0171 295.804 53.5121 295.595C54.0146 293.902 54.782 291.574 55.142 289.896C53.5222 286.602 53.2815 284.445 49.2192 284.632C42.532 286.776 42.7371 296.813 49.0541 296.357Z" fill="#161616"/>
</svg>
